<?xml version="1.0" standalone="no"?>
<!DOCTYPE svg PUBLIC "-//W3C//DTD SVG 20010904//EN"
 "http://www.w3.org/TR/2001/REC-SVG-20010904/DTD/svg10.dtd">
<svg version="1.0" xmlns="http://www.w3.org/2000/svg"
 width="417.000000pt" height="417.000000pt" viewBox="0 0 417.000000 417.000000"
 preserveAspectRatio="xMidYMid meet">
<metadata>
Created by potrace 1.11, written by Peter Selinger 2001-2013
</metadata>
<g transform="translate(0.000000,417.000000) scale(0.100000,-0.100000)"
fill="#000000" stroke="none">
<path d="M1956 3818 c-330 -29 -707 -161 -986 -345 -143 -95 -216 -154 -343
-280 -429 -425 -641 -986 -598 -1583 22 -298 76 -542 172 -775 74 -180 213
-405 269 -435 10 -5 76 -10 147 -10 149 0 241 -9 221 -21 -7 -5 589 -9 1325
-9 1105 0 1337 2 1337 13 0 8 -21 18 -50 25 -106 25 -214 93 -253 161 l-18 31
68 -35 c101 -51 179 -68 292 -63 122 5 189 35 277 122 84 84 138 189 174 341
29 119 27 125 -24 68 -59 -65 -154 -110 -269 -125 -46 -6 -93 -8 -103 -4 -18
7 -18 8 -1 21 10 7 67 25 126 40 59 14 131 40 159 55 154 89 234 319 262 751
6 96 10 215 8 264 l-3 90 -48 -146 c-26 -81 -68 -187 -92 -235 -46 -93 -139
-218 -192 -260 -27 -21 -23 -11 33 83 120 201 172 368 181 578 11 272 -61 493
-257 788 -255 383 -619 660 -1060 808 -259 86 -478 112 -754 87z m969 -578
c55 -12 134 -32 175 -46 104 -34 279 -123 380 -193 l85 -58 -3 -99 c-4 -133
-20 -284 -39 -369 -21 -97 -114 -299 -167 -365 -25 -30 -72 -89 -106 -130
-150 -185 -233 -445 -247 -780 -6 -159 -13 -181 -67 -218 -95 -65 -235 -54
-308 24 -38 41 -104 186 -154 339 l-43 130 75 12 c118 20 224 87 224 142 0 16
-6 17 -57 9 -113 -18 -230 10 -318 78 -19 14 -68 70 -109 123 -82 107 -134
158 -169 165 -12 3 -62 10 -111 17 -84 11 -92 14 -150 60 -84 69 -138 93 -217
97 -63 4 -68 2 -103 -29 -36 -31 -76 -95 -76 -120 0 -8 7 -6 18 4 24 22 74 22
114 1 59 -30 218 -196 218 -226 0 -7 -50 -9 -157 -6 l-156 6 -24 -26 c-43 -46
-32 -58 55 -66 42 -4 93 -11 113 -16 112 -30 259 -225 277 -368 17 -127 -17
-231 -103 -321 -121 -127 -297 -153 -374 -55 -35 44 -50 119 -66 311 -22 269
-50 383 -136 554 -47 95 -157 259 -243 364 -36 44 -66 86 -66 92 0 41 161 263
285 392 165 172 318 283 540 391 218 107 443 172 690 199 140 15 402 5 520
-19z m-2155 -495 c14 -361 27 -404 165 -575 169 -209 282 -411 330 -590 16
-59 29 -147 36 -235 23 -300 49 -395 122 -443 35 -23 51 -27 116 -27 66 0 86
4 142 32 82 41 150 111 192 201 29 61 32 75 32 168 0 98 -1 103 -42 185 -48
95 -107 171 -174 223 -45 36 -80 46 -202 61 -40 5 -46 9 -37 20 10 12 40 13
164 9 127 -5 154 -4 171 9 20 16 20 16 0 53 -29 54 -150 180 -203 211 -25 15
-61 29 -80 32 l-35 6 31 31 c36 37 86 49 140 35 46 -13 142 -70 191 -114 34
-30 46 -34 141 -46 58 -8 118 -21 133 -30 16 -9 61 -58 99 -110 88 -118 148
-175 213 -206 64 -30 159 -46 228 -38 l52 6 -23 -26 c-31 -34 -105 -64 -172
-72 -99 -11 -101 -12 -94 -43 35 -149 154 -435 202 -485 93 -99 266 -100 366
-4 l44 42 6 125 c15 284 56 472 136 635 47 97 81 145 202 291 74 91 164 284
189 409 21 106 39 284 40 410 1 50 4 114 7 144 l7 55 58 -72 c232 -288 340
-557 339 -847 0 -248 -69 -447 -243 -708 -37 -56 -66 -103 -64 -106 8 -7 132
89 180 140 87 92 155 208 217 369 l29 75 -6 -150 c-12 -346 -77 -591 -186
-710 -50 -54 -83 -70 -223 -106 -88 -23 -117 -36 -141 -60 -39 -39 -25 -49 74
-49 111 0 223 35 309 96 28 21 28 14 -4 -82 -70 -215 -190 -336 -364 -366
-118 -20 -263 15 -378 92 -31 21 -58 37 -60 35 -8 -8 22 -82 48 -117 32 -45
64 -71 133 -109 l52 -29 -1195 0 -1195 0 81 40 c121 59 224 162 224 225 0 20
-1 20 -62 -21 -85 -57 -208 -112 -298 -135 -296 -75 -478 79 -544 459 l-6 33
33 -24 c82 -62 194 -97 310 -97 78 0 106 13 93 45 -7 20 -35 30 -176 66 -164
42 -223 87 -285 214 -63 131 -101 334 -111 590 l-5 150 43 -105 c58 -143 117
-238 200 -326 59 -62 163 -144 182 -144 3 0 -26 48 -65 108 -281 424 -320 800
-125 1208 59 122 127 230 220 344 l61 75 2 -50 c2 -28 7 -162 13 -300z m-3
-1826 c22 -8 24 -12 13 -19 -19 -12 -80 -13 -80 -1 0 5 -3 17 -7 27 -5 14 -2
16 20 10 14 -3 39 -11 54 -17z m461 -340 c-45 -60 -166 -133 -297 -178 -35
-12 -65 -21 -66 -19 -5 6 -35 67 -35 71 0 2 23 7 52 10 74 9 160 41 263 96 50
27 94 50 98 50 4 1 -3 -13 -15 -30z"/>
<path d="M1985 1910 c-13 -40 37 -87 133 -125 24 -10 45 -15 48 -12 10 10 -48
107 -79 133 -37 31 -93 33 -102 4z m104 -47 c17 -20 29 -39 27 -41 -6 -5 -67
27 -88 46 -25 21 -22 32 6 32 16 0 35 -13 55 -37z"/>
</g>
</svg>
